# Blender v2.93.1 OBJ File: 'Stones.blend'
# www.blender.org
mtllib Stone.mtl
o Stone_medium_002_Icosphere
v 3.620386 0.057566 -3.775312
v 3.591752 -0.106306 -4.400925
v 3.327671 0.063690 -4.270660
v 3.951312 0.099599 -3.466600
v 3.898458 -0.026425 -3.800948
v 3.678099 0.830368 -3.923888
v 3.466753 0.831982 -4.260212
v 3.981034 1.013881 -3.734191
v 4.361726 1.196890 -3.959057
v 3.905699 1.212544 -4.301498
v 4.235563 1.298408 -4.328380
v 3.551881 -0.096436 -4.730003
v 3.376487 0.026780 -4.965158
v 3.629154 0.119676 -5.371388
v 3.804253 -0.124453 -5.163867
v 4.201558 -0.146037 -5.478467
v 4.058818 0.184796 -5.748640
v 3.527337 0.714953 -5.024126
v 3.692175 0.693920 -5.283930
v 4.021618 1.185057 -4.956189
v 4.226476 1.283770 -4.663553
v 4.101115 0.843634 -5.599116
v 4.704284 0.067251 -3.498950
v 4.587800 -0.035145 -3.695558
v 5.014783 0.089148 -3.643881
v 4.981299 -0.103905 -4.593577
v 5.366474 0.075254 -4.080216
v 4.756165 0.992691 -3.718581
v 4.468914 1.226151 -3.968050
v 4.899068 1.247438 -4.337573
v 4.650316 1.335522 -4.220541
v 4.892788 0.973231 -3.763244
v 5.270879 1.016811 -4.303979
v 4.705055 -0.112590 -5.384598
v 4.851819 0.306234 -5.591282
v 5.055015 -0.152138 -5.009029
v 5.479386 0.023956 -4.893061
v 4.956080 -0.078065 -5.184851
v 5.109972 0.309724 -5.350018
v 4.638485 1.116658 -5.159986
v 4.442435 1.312932 -4.600942
v 4.640622 0.878559 -5.500002
v 5.307949 0.784827 -4.874659
v 5.030122 0.686539 -5.267987
vt 0.296594 0.795612
vt 0.330291 0.782364
vt 0.261412 0.849240
vt 0.557925 0.473071
vt 0.598723 0.505542
vt 0.539910 0.521591
vt 0.404905 0.487725
vt 0.426776 0.429317
vt 0.453952 0.482001
vt 0.480160 0.453991
vt 0.556348 0.298980
vt 0.500141 0.260359
vt 0.536813 0.250937
vt 0.539600 0.343088
vt 0.567534 0.352046
vt 0.514679 0.308141
vt 0.405041 0.355439
vt 0.468533 0.324338
vt 0.475988 0.351865
vt 0.417211 0.784121
vt 0.532936 0.630482
vt 0.659477 0.681620
vt 0.461574 0.624905
vt 0.494172 0.602982
vt 0.346985 0.497914
vt 0.409517 0.543827
vt 0.323735 0.535152
vt 0.400740 0.557699
vt 0.245076 0.736886
vt 0.183255 0.773797
vt 0.220867 0.672596
vt 0.166535 0.561596
vt 0.289199 0.637862
vt 0.395094 0.497599
vt 0.389186 0.442097
vt 0.559136 0.178019
vt 0.467099 0.150760
vt 0.415142 0.669267
vt 0.377508 0.397135
vt 0.325574 0.284034
vt 0.438126 0.281549
vt 0.557629 0.410011
vt 0.598903 0.386317
vt 0.337560 0.720474
vt 0.690454 0.193345
vt 0.482305 0.417820
vt 0.266135 0.468090
vt 0.343478 0.590288
vt 0.122572 0.647478
vt 0.384057 0.227616
vt 0.690454 0.810748
vt 0.340015 0.411282
vn 0.5363 -0.6264 -0.5657
vn -0.2362 -0.8964 0.3752
vn -0.2307 0.9084 0.3487
vn -0.6315 0.7018 0.3296
vn -0.4832 -0.6693 -0.5643
vn -0.3991 -0.9002 -0.1740
vn -0.1034 -0.9537 -0.2824
vn -0.5905 0.6830 -0.4299
vn -0.0228 -0.9975 0.0664
vn 0.2242 -0.9124 0.3424
vn 0.4735 0.7706 0.4265
vn 0.2607 0.8701 0.4183
vn 0.6465 -0.5015 -0.5750
vn 0.5760 -0.5151 -0.6348
vn -0.1951 -0.9776 0.0789
vn 0.5472 0.6351 -0.5452
vn -0.0177 -0.8824 0.4701
vn 0.0081 0.7688 0.6395
vn -0.2230 0.9178 0.3285
vn 0.0431 -0.9915 0.1224
vn 0.2428 -0.5486 -0.8001
vn 0.2202 -0.9605 0.1700
vn -0.0004 0.9476 -0.3194
vn -0.0591 0.8786 -0.4739
vn -0.5274 -0.8487 0.0384
vn -0.4956 -0.6599 -0.5647
vn -0.1333 -0.9910 -0.0136
vn 0.3384 -0.9260 0.1676
vn 0.0146 -0.9999 0.0059
vn -0.3176 0.9434 -0.0958
vn -0.6549 0.7375 -0.1649
vn 0.2688 0.9344 -0.2338
vn 0.5231 0.8008 -0.2916
vn -0.8489 0.1602 0.5036
vn -0.6827 0.1868 0.7064
vn -0.8547 0.1446 -0.4985
vn -0.6641 0.1833 -0.7248
vn 0.7675 0.1886 0.6126
vn 0.3301 0.2004 0.9224
vn 0.8191 0.1976 -0.5386
vn 0.5989 0.3369 -0.7266
vn -0.9751 0.2069 -0.0795
vn 0.9690 0.2154 0.1210
vn 0.0532 0.2789 0.9588
vn 0.1637 0.2083 -0.9643
vn 0.0187 -0.9923 0.1226
vn -0.0860 0.9962 -0.0122
vn -0.3974 -0.8609 0.3178
vn 0.0052 -0.9997 0.0252
vn -0.2732 -0.9502 0.1497
vn -0.2132 0.9210 0.3260
vn -0.5876 0.7182 0.3727
vn -0.5858 0.6835 -0.4354
vn 0.2465 -0.9418 0.2287
vn 0.2221 0.8263 0.5175
vn 0.4607 0.7990 0.3865
vn 0.4280 -0.5692 -0.7020
vn 0.5937 -0.5031 -0.6280
vn 0.5973 0.6587 -0.4575
vn -0.0670 -0.9301 0.3612
vn -0.1162 0.6550 0.7467
vn -0.1605 0.9426 0.2930
vn 0.1912 -0.4874 -0.8520
vn -0.0284 0.9400 -0.3400
vn 0.0522 0.8182 -0.5726
vn -0.5774 -0.8165 0.0028
vn 0.3045 -0.9470 0.1021
vn -0.2544 0.9664 -0.0353
vn -0.6706 0.7267 -0.1492
vn 0.2465 0.9501 -0.1911
vn 0.5219 0.8012 -0.2928
vn -0.8375 0.1444 0.5270
vn -0.6154 0.2398 0.7508
vn -0.8254 0.1725 -0.5376
vn -0.6438 0.2084 -0.7363
vn 0.7919 0.2161 0.5711
vn 0.4060 0.1771 0.8966
vn 0.7465 0.2887 -0.5995
vn 0.6512 0.2906 -0.7010
vn -0.9783 0.1785 -0.1049
vn 0.9941 0.1060 0.0215
vn -0.0133 0.2316 0.9727
vn 0.1588 0.2124 -0.9642
vn -0.1223 0.9917 -0.0400
usemtl Stone
s off
f 38/1/1 36/2/1 34/3/1
f 1/4/2 5/5/2 4/6/2
f 9/7/3 10/8/3 8/9/3
f 10/8/4 6/10/4 8/9/4
f 15/11/5 17/12/5 16/13/5
f 13/14/6 15/11/6 12/15/6
f 13/14/7 14/16/7 17/12/7
f 20/17/8 19/18/8 18/19/8
f 26/20/9 24/21/9 5/22/9
f 24/21/10 25/23/10 23/24/10
f 31/25/11 28/26/11 30/27/11
f 32/28/12 30/27/12 28/26/12
f 39/29/13 36/2/13 38/1/13
f 35/30/14 38/1/14 34/3/14
f 36/2/15 26/20/15 34/3/15
f 44/31/16 40/32/16 43/33/16
f 4/6/17 24/21/17 23/24/17
f 28/26/18 9/7/18 8/9/18
f 29/34/19 11/35/19 9/7/19
f 15/11/20 16/13/20 34/36/20
f 35/37/21 16/13/21 17/12/21
f 26/20/22 27/38/22 24/21/22
f 21/39/23 40/40/23 20/17/23
f 40/40/24 22/41/24 20/17/24
f 3/42/25 12/15/25 2/43/25
f 15/11/26 13/14/26 17/12/26
f 2/43/27 12/15/27 15/11/27
f 37/44/28 26/20/28 36/2/28
f 26/45/29 15/11/29 34/36/29
f 10/8/30 21/39/30 20/17/30
f 10/8/31 18/19/31 7/46/31
f 41/47/32 30/27/32 40/32/32
f 43/33/33 30/27/33 33/48/33
f 6/10/34 3/42/34 1/4/34
f 4/6/35 6/10/35 1/4/35
f 18/19/36 14/16/36 13/14/36
f 19/18/37 17/12/37 14/16/37
f 27/38/38 32/28/38 25/23/38
f 23/24/39 32/28/39 28/26/39
f 39/29/40 43/33/40 37/44/40
f 44/31/41 35/30/41 42/49/41
f 3/42/42 18/19/42 13/14/42
f 43/33/43 27/38/43 37/44/43
f 23/24/44 8/9/44 4/6/44
f 42/50/45 17/12/45 22/41/45
f 5/22/46 2/51/46 26/20/46
f 41/52/47 11/35/47 31/25/47
f 3/42/48 2/43/48 5/5/48
f 26/45/49 2/43/49 15/11/49
f 1/4/50 3/42/50 5/5/50
f 9/7/51 11/35/51 10/8/51
f 10/8/52 7/46/52 6/10/52
f 20/17/53 22/41/53 19/18/53
f 24/21/54 27/38/54 25/23/54
f 31/25/55 29/34/55 28/26/55
f 32/28/56 33/48/56 30/27/56
f 39/29/57 37/44/57 36/2/57
f 35/30/58 39/29/58 38/1/58
f 44/31/59 42/49/59 40/32/59
f 4/6/60 5/5/60 24/21/60
f 28/26/61 29/34/61 9/7/61
f 29/34/62 31/25/62 11/35/62
f 35/37/63 34/36/63 16/13/63
f 21/39/64 41/52/64 40/40/64
f 40/40/65 42/50/65 22/41/65
f 3/42/66 13/14/66 12/15/66
f 37/44/67 27/38/67 26/20/67
f 10/8/68 11/35/68 21/39/68
f 10/8/69 20/17/69 18/19/69
f 41/47/70 31/25/70 30/27/70
f 43/33/71 40/32/71 30/27/71
f 6/10/72 7/46/72 3/42/72
f 4/6/73 8/9/73 6/10/73
f 18/19/74 19/18/74 14/16/74
f 19/18/75 22/41/75 17/12/75
f 27/38/76 33/48/76 32/28/76
f 23/24/77 25/23/77 32/28/77
f 39/29/78 44/31/78 43/33/78
f 44/31/79 39/29/79 35/30/79
f 3/42/80 7/46/80 18/19/80
f 43/33/81 33/48/81 27/38/81
f 23/24/82 28/26/82 8/9/82
f 42/50/83 35/37/83 17/12/83
f 41/52/84 21/39/84 11/35/84
